<svg xmlns="http://www.w3.org/2000/svg" viewBox="0 0 476 600"><defs><style>.cls-1{opacity:0.75;}.cls-2{fill:#f90;}.cls-3{fill:#0396a6;}</style></defs><g id="Calque_2" data-name="Calque 2"><g id="Calque_1-2" data-name="Calque 1"><g class="cls-1"><polygon class="cls-2" points="20.12 0 0 11.61 0 0 20.12 0"/><polygon class="cls-2" points="51.1 0 0 29.5 0 19.7 34.11 0 51.1 0"/><polygon class="cls-2" points="84.08 0 0 48.54 0 37.58 65.09 0 84.08 0"/><polygon class="cls-2" points="115.06 0 0 66.43 0 56.62 98.07 0 115.06 0"/><polygon class="cls-2" points="476 0 476 600 0 600 0 70 7.81 70 129.05 0 146.57 0 25.33 70 39.33 70 160.57 0 177.55 0 56.31 70 70.31 70 191.55 0 208.54 0 87.29 70 101.29 70 222.53 0 476 0"/></g><polygon class="cls-3" points="441.96 533.78 408.8 583.78 34.09 583.78 67.25 533.78 441.96 533.78"/><polygon class="cls-3" points="446.41 0 446.41 70 102.7 70 223.94 0 446.41 0"/></g></g></svg>