<svg xmlns="http://www.w3.org/2000/svg" viewBox="0 0 111.69 111.69"><defs><style>.cls-1{fill:lime;}</style></defs><g id="Calque_2" data-name="Calque 2"><g id="Calque_1-2" data-name="Calque 1"><path class="cls-1" d="M111.14,48H63.7V.55c1.88.27,3.74.62,5.56,1.07a55.92,55.92,0,0,1,40,37.86A54.15,54.15,0,0,1,111.14,48Z"/><path class="cls-1" d="M55.44,56.25V0c-1.37,0-2.73.07-4.08.17a55.85,55.85,0,1,0,60.21,59.34c.07-1.08.11-2.17.12-3.26Zm.41,51.37A51.78,51.78,0,0,1,51.36,4.26V59.51h56.13A51.78,51.78,0,0,1,55.85,107.62Z"/></g></g></svg>