<svg xmlns="http://www.w3.org/2000/svg" viewBox="0 0 157.96 108.73"><defs><style>.cls-1{fill:lime;}</style></defs><g id="Calque_2" data-name="Calque 2"><g id="Calque_1-2" data-name="Calque 1"><path class="cls-1" d="M.71,26.11A20.66,20.66,0,0,0,10.37,38.7L42.22,57.09l1-1.68L11.34,37A18.8,18.8,0,1,1,30.14,4.46L62,22.85l1-1.68L31.11,2.78A20.74,20.74,0,0,0,.71,26.11ZM155.18,98.36A20.74,20.74,0,0,0,147.59,70L115.74,51.65l-1,1.67,31.85,18.39a18.8,18.8,0,1,1-18.8,32.56L96,85.89l-1,1.67L126.86,106A20.72,20.72,0,0,0,155.18,98.36Z"/><rect class="cls-1" x="42.35" y="53.4" width="73.26" height="1.94" transform="translate(120.2 140.94) rotate(-150)"/></g></g></svg>