<svg xmlns="http://www.w3.org/2000/svg" viewBox="0 0 412.51 818.24"><defs><style>.cls-1{fill:#534741;}.cls-2{fill:#1a1a1a;}.cls-3{fill:#ccc;}.cls-4{opacity:0.05;}.cls-5{fill:#e6e6e6;}</style></defs><g id="Calque_2" data-name="Calque 2"><g id="Calque_1-2" data-name="Calque 1"><rect class="cls-1" x="3.39" width="409.12" height="818.24"/><rect class="cls-2" y="683.23" width="409.12" height="135.01"/><path class="cls-3" d="M412.51,49.49v5.62l0,0v471L299,460.64l-38.3-22.12a13.15,13.15,0,0,1-6.58-11.4V147.87c0-.46,0-.93.06-1.38a13.32,13.32,0,0,1,3.51-7.63,13,13,0,0,1,3-2.39L412.47,48.86v.66Z"/><g class="cls-4"><path class="cls-5" d="M83.72,329.79v51.74a13.15,13.15,0,0,1-6.58,11.4L32.33,418.8a13.13,13.13,0,0,1-13.17,0L3.35,409.68v-108l15.81-9.13a13.13,13.13,0,0,1,13.17,0l44.81,25.87A13.17,13.17,0,0,1,83.72,329.79Z"/><path class="cls-5" d="M97.73,347.57v73.61a9.65,9.65,0,0,0,4.83,8.36l63.74,36.8a9.69,9.69,0,0,0,9.66,0l63.74-36.8a9.65,9.65,0,0,0,4.83-8.36V347.57a9.65,9.65,0,0,0-4.83-8.36L176,302.41a9.69,9.69,0,0,0-9.66,0l-63.74,36.8A9.65,9.65,0,0,0,97.73,347.57Z"/><path class="cls-5" d="M203.18,184.19v80.23a11.45,11.45,0,0,1-5.72,9.92L127.3,314.85a11.45,11.45,0,0,1-11.46,0L50.59,277.17l-4.23-2.44Z"/><path class="cls-5" d="M162.58,485v44.12H19.43V485A13.18,13.18,0,0,1,26,473.61l58.4-33.71a13.12,13.12,0,0,1,13.16,0L156,473.61A13.18,13.18,0,0,1,162.58,485Z"/></g><polygon class="cls-5" points="412.36 0 412.36 49.64 3.24 297.09 3.24 0 412.36 0"/></g></g></svg>