<svg xmlns="http://www.w3.org/2000/svg" viewBox="0 0 53.68 53.68"><defs><style>.cls-1{fill:#fff;stroke:#fff;stroke-miterlimit:10;stroke-width:1.68px;}</style></defs><g id="Calque_2" data-name="Calque 2"><g id="Calque_1-2" data-name="Calque 1"><path class="cls-1" d="M40.61,10.13a3,3,0,1,0,3,3A3,3,0,0,0,40.61,10.13Z"/><path class="cls-1" d="M27.05,14a12.81,12.81,0,1,0,12.81,12.8A12.81,12.81,0,0,0,27.05,14Zm0,21a8.2,8.2,0,1,1,8.21-8.2A8.21,8.21,0,0,1,27.05,35Z"/><path class="cls-1" d="M37.22,52.84H16.46A15.64,15.64,0,0,1,.84,37.22V16.46A15.64,15.64,0,0,1,16.46.84H37.22A15.64,15.64,0,0,1,52.84,16.46V37.22A15.64,15.64,0,0,1,37.22,52.84ZM16.46,5.73A10.75,10.75,0,0,0,5.73,16.46V37.22A10.74,10.74,0,0,0,16.46,48H37.22A10.74,10.74,0,0,0,48,37.22V16.46A10.74,10.74,0,0,0,37.22,5.73Z"/></g></g></svg>